<?xml version="1.0" encoding="UTF-8" standalone="no"?>
<!-- Created with Inkscape (http://www.inkscape.org/) -->

<svg
   width="400mm"
   height="250mm"
   viewBox="0 0 210 297"
   version="1.1"
   id="svg5"
   xmlns:xlink="http://www.w3.org/1999/xlink"
   xmlns="http://www.w3.org/2000/svg"
   xmlns:svg="http://www.w3.org/2000/svg">
  <defs
     id="defs2">
    <rect
       x="200.39035"
       y="251.22107"
       width="380.2529"
       height="83.088681"
       id="rect11022" />
    <linearGradient
       id="linearGradient7534">
      <stop
         style="stop-color:#000000;stop-opacity:1;"
         offset="0"
         id="stop7530" />
      <stop
         style="stop-color:#000000;stop-opacity:0;"
         offset="1"
         id="stop7532" />
    </linearGradient>
    <linearGradient
       xlink:href="#linearGradient7534"
       id="linearGradient7602"
       gradientUnits="userSpaceOnUse"
       x1="149.92397"
       y1="452.8782"
       x2="243.89897"
       y2="452.8782"
       gradientTransform="matrix(0.26458333,0,0,0.26458333,-2.0538369,-3.0508252)" />
    <linearGradient
       xlink:href="#linearGradient7534"
       id="linearGradient7625"
       gradientUnits="userSpaceOnUse"
       x1="149.92397"
       y1="452.8782"
       x2="243.89897"
       y2="452.8782"
       gradientTransform="matrix(-0.27901912,0,0,0.25860928,209.6698,2.3703315)" />
  </defs>
  <g
     id="layer1">
    <ellipse
       style="fill:#aafff9;stroke-width:0.264583"
       id="path1177"
       cx="102.23091"
       cy="161.85037"
       rx="68.946426"
       ry="69.677956" />
    <path
       style="fill:#aafff9;stroke-width:0.667698"
       d="m 33.888525,141.28843 c -0.03756,-16.04739 -0.334081,-34.00554 -0.658959,-39.90702 l -0.590689,-10.72996 39.822777,9.49364 c 38.974726,9.29146 39.779296,9.51142 37.780426,10.32827 -1.12331,0.45904 -6.29059,2.55322 -11.482858,4.6537 -29.867915,12.08281 -52.30425,30.36366 -62.65776,51.05279 l -2.144673,4.28564 z"
       id="path1317" />
    <path
       style="fill:#aafff9;stroke-width:0.628969"
       d="m 168.74577,158.14409 c -9.89638,-15.38529 -31.37815,-30.68418 -57.04063,-40.62321 -5.10519,-1.97723 -9.17817,-3.63729 -9.05107,-3.68901 1.55351,-0.63215 66.71734,-20.800003 66.88107,-20.699323 0.3844,0.236374 2.41069,68.482283 2.03914,68.678393 -0.1929,0.1018 -1.46574,-1.54826 -2.82851,-3.66685 z"
       id="path1356" />
    <path
       style="fill:#aafff9;stroke-width:1.38241"
       d=""
       id="path1395"
       transform="scale(0.26458333)" />
    <path
       style="fill:#aafff9;stroke-width:1.38241"
       d="M 369.10438,873.45146 C 275.33493,868.22285 188.36008,807.1643 149.39739,719.21161 131.44006,678.67551 123.51961,631.68489 127.52764,589.46229 l 1.03681,-10.92228 0.75267,18.66258 0.75267,18.66258 0.28593,-26.26585 c 0.24452,-22.46188 0.77252,-28.26795 3.64578,-40.08999 15.58198,-64.11208 54.37044,-119.83626 109.14158,-156.79468 l 9.83857,-6.63887 24.48611,10.6942 24.48612,10.69421 91.95127,2.17669 91.95129,2.17668 18.79909,-11.16229 c 21.62508,-12.84025 18.8169,-12.85532 36.39572,0.19531 23.5267,17.46637 48.45712,44.49015 64.44947,69.86118 17.51088,27.78011 30.18869,60.10662 31.98713,81.5624 0.856,10.21227 1.18662,11.45086 1.84502,6.91206 0.69953,-4.82231 1.14865,-3.49605 3.51101,10.3681 3.86466,22.68084 3.6562,64.73922 -0.43168,87.09205 -7.66828,41.9306 -24.01601,80.06374 -48.39253,112.88167 -12.22629,16.46015 -40.91688,44.75536 -56.55908,55.77962 -51.28746,36.14625 -105.49888,51.64876 -168.35621,48.1438 z"
       id="path1434"
       transform="scale(0.26458333)" />
    <path
       style="fill:#aafff9;stroke-width:1.38241"
       d="M 369.79559,873.47588 C 267.02414,867.65389 175.45131,797.61209 141.22581,698.64848 129.1971,663.86728 123.97769,621.75937 127.53746,588.2169 c 0.98409,-9.27266 1.05843,-8.89731 1.77966,8.98569 l 0.75267,18.66258 0.28593,-26.26585 c 0.24452,-22.46188 0.77252,-28.26795 3.64578,-40.08999 15.7846,-64.94576 54.36981,-119.97631 110.68567,-157.86083 l 8.29448,-5.57982 24.47866,10.6945 24.47866,10.6945 70.90786,1.55582 c 38.99932,0.8557 80.23916,1.90586 91.64407,2.3337 l 20.73621,0.77788 19.15658,-11.29653 c 16.02675,-9.45089 19.64053,-11.07463 22.11862,-9.93835 12.03769,5.51965 45.51333,35.41908 60.73526,54.24692 26.46859,32.73868 47.53687,77.18074 50.13422,105.75462 0.86256,9.48907 1.32019,11.29346 1.9284,7.60328 0.72867,-4.42103 0.94968,-4.00361 2.56186,4.83844 10.19216,55.89902 2.26791,113.59815 -22.60156,164.56942 -37.12835,76.09652 -109.41071,129.90376 -192.09475,142.99599 -19.54562,3.09486 -35.54357,3.81348 -57.37015,2.57701 z"
       id="path1473"
       transform="scale(0.26458333)" />
    <path
       style="fill:#aafff9;stroke-width:1.38241"
       d="M 368.41317,873.54709 C 299.65562,869.59497 229.9304,833.27837 185.54338,778.29875 142.60747,725.11653 120.6462,653.15082 127.53746,588.2169 c 1.0149,-9.56301 1.03589,-9.47351 1.78358,7.60328 0.75454,17.23314 0.75737,17.21244 1.0386,-7.60328 0.23792,-20.9933 0.80727,-27.04462 3.64186,-38.70757 15.65341,-64.40598 54.11855,-119.66567 109.14177,-156.79495 l 9.83878,-6.63914 24.88324,10.73319 24.88325,10.73319 91.23928,2.14056 91.23929,2.14056 19.17982,-11.13477 c 22.39641,-13.00215 19.30846,-13.17957 39.4604,2.26725 15.98647,12.25393 37.88322,34.40934 49.52326,50.10825 23.70398,31.96955 41.53837,71.35659 43.98351,97.13707 0.81937,8.639 1.34299,10.65233 1.97742,7.60327 0.74871,-3.59826 1.07836,-2.95779 2.49032,4.83845 15.98491,88.26247 -12.33695,177.22024 -75.93157,238.49785 -54.08109,52.11071 -121.37548,76.78238 -197.4971,72.40698 z"
       id="path1512"
       transform="scale(0.26458333)" />
    <path
       style="fill:#5bb6fc;stroke-width:1.38241"
       d="M 367.72197,873.51277 C 299.23299,869.40756 229.80306,833.12062 185.54338,778.29875 142.60747,725.11653 120.6462,653.15082 127.53746,588.2169 l 1.02699,-9.67689 0.7662,14.51534 c 0.73959,14.01089 0.77562,13.7618 1.03682,-7.16729 0.30764,-24.65088 1.95408,-34.22365 10.05365,-58.45426 15.57958,-46.60775 43.22512,-86.91877 81.47318,-118.79916 13.61742,-11.35035 30.05929,-22.44943 32.30377,-21.80666 0.85162,0.24389 12.12387,4.9929 25.04944,10.55336 l 23.50103,10.10992 91.23928,2.17428 91.23929,2.17428 19.10966,-11.17528 c 22.00917,-12.8709 19.47197,-12.858 36.61975,-0.18619 13.98687,10.33597 37.14247,32.90709 47.94255,46.73239 25.90513,33.16145 45.84578,75.47992 48.52925,102.9898 0.71272,7.30652 1.28075,9.34757 1.92364,6.91206 1.9552,-7.40707 6.89755,31.41301 6.91497,54.31421 0.052,68.31265 -26.1065,133.53363 -73.23065,182.58636 -54.61396,56.84905 -125.47066,84.28542 -205.31431,79.4996 z"
       id="path1551"
       transform="scale(0.26458333)" />
    <path
       style="fill:#5bb6fc;stroke-width:1.38241"
       d="M 367.72197,873.48475 C 278.24172,868.2725 193.71655,810.82558 153.36349,727.79757 132.49161,684.85283 122.47948,630.43817 127.52764,587.38288 l 1.03681,-8.84287 0.77926,11.75051 c 0.70741,10.66712 0.80301,10.0063 1.03681,-7.16728 0.34286,-25.18412 3.43301,-39.6659 14.69985,-68.88972 9.08962,-23.57659 24.04514,-49.08183 40.92141,-69.78761 15.18969,-18.63649 42.44381,-42.97219 61.50817,-54.92176 l 5.5876,-3.50232 24.8255,10.70391 24.82549,10.70391 91.23928,2.1606 91.23929,2.16061 18.96982,-11.06047 c 13.67013,-7.97045 19.75586,-10.81099 21.78339,-10.16749 10.03146,3.18387 47.4782,36.92222 62.91875,56.68784 25.75549,32.9699 45.83817,75.30724 48.52525,102.29859 0.63561,6.38459 1.29556,8.73623 1.93974,6.91207 2.07199,-5.86742 6.88574,32.49089 6.90287,55.00541 0.0752,98.8461 -55.18914,189.75722 -142.66772,234.69189 -41.91026,21.52784 -85.47538,30.30198 -135.87724,27.36605 z"
       id="path1590"
       transform="scale(0.26458333)" />
    <path
       style="fill:#ffaaaa;stroke-width:1.38241"
       d="m 367.72197,873.5748 c -59.09714,-3.7632 -115.6631,-29.11133 -160.17059,-71.77502 -44.36215,-42.52438 -70.54423,-94.7252 -79.04413,-157.59513 -2.11924,-15.67506 -2.62116,-45.79307 -0.9676,-58.06137 l 1.0248,-7.60327 0.79269,9.67689 c 0.67151,8.19747 0.83002,7.07898 1.03681,-7.31595 0.39785,-27.69401 7.20776,-52.90218 23.04509,-85.30574 18.4773,-37.80498 45.89582,-70.85177 79.74244,-96.11136 20.82592,-15.54229 16.0123,-15.23826 44.7136,-2.82411 l 24.85346,10.74983 91.23928,2.14874 91.23929,2.14874 18.92875,-11.0516 c 13.8006,-8.05753 19.70211,-10.80615 21.78338,-10.14558 9.34399,2.96567 44.98955,34.55198 60.86749,53.93604 25.18354,30.7445 47.66725,76.89448 50.4472,103.54775 0.56641,5.4307 1.45565,8.79896 2.06337,7.81564 2.3572,-3.81402 6.93227,32.80007 6.94963,55.61751 0.0624,81.89797 -37.36735,158.34449 -102.52363,209.395 -36.93043,28.9353 -89.51737,49.54479 -133.15753,52.18611 -6.8479,0.41447 -15.56114,0.94925 -19.36278,1.1884 -3.80163,0.23916 -14.3771,-0.0405 -23.50102,-0.62152 z"
       id="path1629"
       transform="scale(0.26458333)" />
    <path
       style="fill:#ffaaaa;stroke-width:1.38241"
       d="M 366.33955,873.62662 C 260.77153,866.17802 166.5485,789.16195 137.12541,686.2714 c -8.69784,-30.41575 -12.71334,-69.88019 -9.83663,-96.6747 l 1.18707,-11.05669 0.85578,7.60327 c 0.6837,6.07438 0.90109,4.60326 1.08111,-7.31595 0.12393,-8.20558 1.21471,-19.71417 2.42395,-25.57465 7.3652,-35.6947 28.14476,-78.2692 53.11773,-108.83102 11.0195,-13.48563 36.06728,-37.1417 49.17744,-46.44505 19.50341,-13.84018 14.31408,-13.6741 42.73323,-1.36768 l 24.88345,10.77533 91.23928,2.10767 91.23929,2.10767 19.19002,-11.12627 19.19004,-11.12627 6.02361,3.19552 c 14.79536,7.84892 49.45917,40.68981 64.30981,60.92785 22.88103,31.18164 40.77986,70.16188 43.38444,94.48308 0.5562,5.19371 1.47177,8.698 2.03459,7.78732 1.41115,-2.28329 2.24773,1.57511 4.78453,22.06669 9.09562,73.4721 -11.93202,146.50768 -58.17555,202.06195 -54.63748,65.63826 -134.56625,99.75895 -219.62905,93.75715 z"
       id="path1668"
       transform="scale(0.26458333)" />
    <path
       style="fill:#658deb;stroke-width:1.38241"
       d="m 365.5072,873.6599 c -47.23224,-3.54768 -94.18554,-21.43926 -133.92009,-51.03035 -13.04335,-9.71362 -35.33288,-31.02286 -45.64717,-43.6396 -31.77331,-38.86601 -52.19295,-87.53719 -58.00236,-138.25141 -1.65107,-14.4133 -1.87437,-43.5739 -0.41807,-54.59526 l 1.00466,-7.60327 0.84932,6.22086 c 0.58904,4.31446 0.91295,1.69532 1.05695,-8.54666 0.53479,-38.0367 23.31872,-92.35996 55.10985,-131.39729 10.73555,-13.18252 36.67864,-37.69075 49.58263,-46.84031 19.52151,-13.84171 14.32389,-13.67207 42.74217,-1.39497 l 24.88345,10.75 91.23928,2.10453 91.23929,2.10453 18.62243,-10.85006 c 10.24234,-5.96753 19.29632,-10.85006 20.11995,-10.85006 8.03343,0 51.71158,39.1569 68.62051,61.5174 22.00873,29.10448 41.9222,71.77733 44.67282,95.72998 0.54557,4.75086 1.4867,8.33215 2.09139,7.95843 1.48763,-0.9194 2.28259,2.70642 4.78769,21.83641 9.45338,72.18995 -11.49311,146.0329 -57.34194,202.14841 -11.6251,14.22824 -36.27529,37.30659 -51.21583,47.95004 -14.98921,10.67811 -39.44427,23.72907 -57.60912,30.74435 -33.31588,12.86661 -74.89026,18.75681 -112.46781,15.9343 z"
       id="path1707"
       transform="scale(0.26458333)" />
    <path
       style="fill:none;stroke:#000000;stroke-width:0.264583px;stroke-linecap:butt;stroke-linejoin:miter;stroke-opacity:1"
       d="m 92.448929,182.36905 c 3.581073,4.35433 7.161834,8.70828 10.911981,8.88057 3.75014,0.17228 7.66961,-3.83683 11.58916,-7.84603"
       id="path6277-0" />
    <path
       id="use3254"
       style="fill:#658deb;stroke:none;stroke-width:0.365763"
       d="m 96.592484,97.942838 c -5.32892,0.07612 -10.606217,0.704707 -15.305527,1.893424 -5.299572,1.340558 -12.443327,4.153408 -16.340603,6.434748 l -1.592667,0.93276 6.164998,2.7249 6.164482,2.7249 19.202961,0.47697 c 10.561422,0.26222 21.424332,0.49733 24.140132,0.52297 l 4.93768,0.047 4.86895,-2.89336 4.86844,-2.89336 -3.40548,-1.85415 c -3.94106,-2.14539 -9.31303,-4.32588 -14.01361,-5.68855 -5.90184,-1.7109 -12.83829,-2.526142 -19.689756,-2.428272 z" />
    <path
       id="use3256"
       style="fill:#658deb;stroke:none;stroke-width:0.365763"
       d="m 99.831235,97.651848 c -5.32892,0.07612 -10.606217,0.704708 -15.305527,1.893425 -5.299572,1.340557 -12.443327,4.153407 -16.340603,6.434747 l -1.592667,0.93276 6.164998,2.7249 6.164482,2.7249 19.202961,0.47697 c 10.561421,0.26222 21.424331,0.49733 24.140131,0.52297 l 4.93768,0.047 4.86895,-2.89336 4.86844,-2.89336 -3.40548,-1.85415 c -3.94106,-2.14539 -9.31303,-4.32588 -14.01361,-5.68854 -5.90184,-1.710909 -12.83829,-2.526151 -19.689755,-2.428282 z" />
    <path
       id="use3258"
       style="fill:#658deb;stroke:none;stroke-width:0.365763"
       d="m 96.477161,101.96713 c -5.32892,0.0761 -10.606217,0.70471 -15.305527,1.89343 -5.299572,1.34056 -12.443327,4.15341 -16.340603,6.43475 l -1.592667,0.93276 6.164998,2.7249 6.164482,2.72489 19.202961,0.47698 c 10.561425,0.26222 21.424335,0.49733 24.140125,0.52296 l 4.93769,0.047 4.86895,-2.89336 4.86844,-2.89337 -3.40548,-1.85415 c -3.94106,-2.14538 -9.31303,-4.32587 -14.01361,-5.68854 -5.90184,-1.7109 -12.83829,-2.52614 -19.689759,-2.42828 z" />
    <path
       id="use3260"
       style="fill:#658deb;stroke:none;stroke-width:0.365763"
       d="m 99.104616,98.874523 c -5.32892,0.07612 -10.606217,0.704707 -15.305526,1.893427 -5.299573,1.34055 -12.443328,4.15341 -16.340603,6.43475 l -1.592668,0.93276 6.164998,2.72489 6.164482,2.7249 19.202961,0.47698 c 10.56142,0.26221 21.42433,0.49732 24.14013,0.52296 l 4.93768,0.047 4.86896,-2.89336 4.86843,-2.89337 -3.40548,-1.85415 c -3.94105,-2.14539 -9.31303,-4.32587 -14.01361,-5.68854 -5.90183,-1.710904 -12.83828,-2.526147 -19.689754,-2.428277 z" />
    <path
       id="use3262"
       style="fill:#658deb;stroke:none;stroke-width:0.365763"
       d="m 98.920949,102.37504 c -5.32892,0.0761 -10.606217,0.70471 -15.305527,1.89342 -5.299572,1.34056 -12.443327,4.15341 -16.340603,6.43476 l -1.592667,0.93275 6.164998,2.7249 6.164482,2.7249 19.202961,0.47697 c 10.561427,0.26222 21.424337,0.49733 24.140127,0.52297 l 4.93768,0.047 4.86896,-2.89336 4.86844,-2.89336 -3.40548,-1.85415 c -3.94106,-2.14539 -9.31303,-4.32588 -14.01362,-5.68854 -5.90183,-1.71091 -12.83828,-2.52615 -19.689751,-2.42828 z" />
    <ellipse
       style="fill:#f9f9f9;stroke:none;stroke-width:0.264583"
       id="path5841"
       cx="72.934753"
       cy="146.12814"
       rx="17.32847"
       ry="17.845737" />
    <ellipse
       style="fill:#f9f9f9;stroke:none;stroke-width:0.264583"
       id="path5841-4"
       cx="131.38602"
       cy="146.38678"
       rx="17.32847"
       ry="17.845737" />
    <ellipse
       style="fill:#000000;stroke:none;stroke-width:0.264583"
       id="path5911"
       cx="73.322701"
       cy="148.19722"
       rx="12.3710656"
       ry="12.2417488" />
    <ellipse
       style="fill:#000000;stroke:none;stroke-width:0.264583"
       id="path5937"
       cx="132.03261"
       cy="147.67995"
       rx="0.8883338"
       ry="8.0176506" />
    <ellipse
       style="fill:#ffffff;stroke:none;stroke-width:0.264583"
       id="path5983"
       cx="67.503441"
       cy="147.80927"
       rx="4.1036065"
       ry="4.2329235" />
    <ellipse
       style="fill:#ffffff;stroke:none;stroke-width:0.264583"
       id="path5985"
       cx="77.590164"
       cy="153.75784"
       rx="2.3277049"
       ry="2.7156558" />
    <ellipse
       style="fill:#ffffff;stroke:none;stroke-width:0.264583"
       id="path5987"
       cx="124.01495"
       cy="146.64542"
       rx="4.0088253"
       ry="4.1381421" />
    <ellipse
       style="fill:#ffffff;stroke:none;stroke-width:0.264583"
       id="path6013"
       cx="137.85187"
       cy="152.59399"
       rx="3.1036065"
       ry="2.5863388" />
    <path
       style="fill:none;stroke:#000000;stroke-width:0.264583px;stroke-linecap:butt;stroke-linejoin:miter;stroke-opacity:1"
       d="m 97.246338,163.71525 12.931692,-0.25864 -6.72448,8.79355 -6.207212,-8.53491"
       id="path6067" />
    <path
       style="fill:#eba465;stroke:none;stroke-width:0.977514"
       d="m 380.4491,634.64656 -10.46738,-14.41399 15.39949,-0.74157 c 8.46972,-0.40786 18.35315,-0.6278 21.96318,-0.48876 l 6.56369,0.25281 -10.79322,14.17395 c -5.93627,7.79568 -11.10938,14.50191 -11.4958,14.90275 -0.38641,0.40084 -5.4129,-5.7575 -11.16996,-13.68519 z"
       id="path6205"
       transform="scale(0.26458333)" />
    <path
       style="fill:none;stroke:#000000;stroke-width:0.264583px;stroke-linecap:butt;stroke-linejoin:miter;stroke-opacity:1"
       d="m 102.9206,171.76158 c 5.68422,6.60987 11.36808,13.21932 16.91658,13.25446 5.5485,0.0351 10.96148,-6.50381 16.37458,-13.04289"
       id="path6277" />
    <path
       style="fill:none;stroke:#000000;stroke-width:0.264583px;stroke-linecap:butt;stroke-linejoin:miter;stroke-opacity:1"
       d="m 70.997385,171.94363 c 4.922192,6.427 9.844062,12.85358 15.362099,12.8125 5.518036,-0.0411 11.632053,-6.54955 17.746186,-13.05813"
       id="path6277-8" />
    <path
       style="fill:#ff0000;stroke:none;stroke-width:0.691207"
       d="m 388.39369,721.59092 c -6.38853,-1.24925 -11.71647,-4.52439 -19.55777,-12.02238 -5.37305,-5.1378 -17.38502,-18.72181 -17.31818,-19.58467 0.0215,-0.27785 1.87173,-1.83919 4.11156,-3.46965 6.24973,-4.54939 15.98415,-13.46933 26.15573,-23.96728 7.64838,-7.89379 9.37432,-9.35894 10.10075,-8.57459 0.48187,0.5203 4.60474,5.14508 9.16192,10.27729 10.24804,11.54115 19.02955,20.0211 26.3667,25.46127 l 5.61473,4.16306 -8.46135,7.95758 c -4.65374,4.37668 -10.3276,9.40884 -12.60859,11.18259 -5.00013,3.88824 -12.22803,7.63519 -15.94393,8.26534 -1.49526,0.25356 -3.18521,0.55185 -3.75546,0.66286 -0.57024,0.11101 -2.31,-0.0471 -3.86611,-0.35142 z"
       id="path7075"
       transform="scale(0.26458333)" />
    <path
       style="fill:#ba65eb;stroke:url(#linearGradient7625);stroke-width:2.13129;stroke-opacity:1"
       d="m 164.03434,135.8199 c 0.20776,-1.37267 2.36078,-37.386739 2.31264,-37.431349 -0.0564,-0.0522 -24.74552,8.492999 -24.66884,8.416059 0.7413,-0.7438 22.03489,29.33667 22.22921,29.51678 0.0246,0.0229 0.0818,-0.20283 0.12699,-0.50149 z"
       id="path7375-5" />
    <path
       style="fill:#ba65eb;stroke:url(#linearGradient7602);stroke-width:2.129317;stroke-opacity:1"
       d="m 41.220561,133.48152 c -0.197009,-1.40437 -3.587531,-33.884364 -3.541887,-33.930014 0.05342,-0.0534 24.665871,4.168914 24.741421,4.244464 0.0328,0.0328 -20.894848,30.01437 -21.079112,30.19863 -0.02336,0.0234 -0.07756,-0.20752 -0.120422,-0.51308 z"
       id="path7375-6" />
    <path
       style="fill:none;stroke:#fb924b;stroke-width:1.264583px;stroke-linecap:butt;stroke-linejoin:miter;stroke-opacity:1"
       d="M 92.332296,167.59475 43.450491,162.42208"
       id="path7954" />
    <path
       style="fill:none;stroke:#21f408;stroke-width:1.264583px;stroke-linecap:butt;stroke-linejoin:miter;stroke-opacity:1"
       d="m 50.174974,180.52645 40.605519,-8.53492"
       id="path7956" />
    <path
       style="fill:none;stroke:#ce2778;stroke-width:1.264583px;stroke-linecap:butt;stroke-linejoin:miter;stroke-opacity:1"
       d="m 114.83344,168.37066 46.81273,-5.43132"
       id="path7958" />
    <path
       style="fill:none;stroke:#dce82c;stroke-width:1.264583px;stroke-linecap:butt;stroke-linejoin:miter;stroke-opacity:1"
       d="m 113.28164,171.21563 34.91557,13.44896"
       id="path7960" />
    <text
       xml:space="preserve"
       transform="matrix(0.62921511,0,0,0.60590931,-51.733351,-91.381389)"
       id="text11020"
       style="font-style:italic;font-weight:normal;font-size:50px;line-height:1.25;font-family:calibri;white-space:pre;shape-inside:url(#rect11022);fill:#c684d7;fill-opacity:1;stroke:none"><tspan
         x="190.39062"
         y="600.71392"
         id="tspan18310">Oops!</tspan></text>
  </g>
</svg>
